<?xml version="1.0" encoding="UTF-8"?>
<svg id="_レイヤー_2" data-name="レイヤー 2" xmlns="http://www.w3.org/2000/svg" viewBox="0 0 220.01 220.01">
  <defs>
    <style>
      .cls-1 {
        fill: #231815;
        stroke-width: 0px;
      }
    </style>
  </defs>
  <g id="_レイヤー_1-2" data-name="レイヤー 1">
    <path class="cls-1" d="M220.01,110c0,5.16-26.27,8.21-27.04,13.16-.8,5.08,23.24,16.06,21.69,20.84s-27.5-.37-29.79,4.13,17.12,22.45,14.14,26.54c-2.99,4.11-26.02-8.87-29.61-5.29s9.4,26.62,5.29,29.61-22-16.46-26.54-14.14c-4.5,2.3.74,28.21-4.13,29.79s-15.77-22.48-20.84-21.69-7.99,27.04-13.16,27.04-8.21-26.27-13.16-27.04-16.06,23.24-20.84,21.69c-4.87-1.58.37-27.5-4.13-29.79s-22.45,17.12-26.54,14.14,8.87-26.02,5.29-29.61-26.62,9.4-29.61,5.29c-2.98-4.09,16.46-22,14.14-26.54-2.3-4.5-28.21.74-29.79-4.13s22.48-15.77,21.69-20.84S0,115.17,0,110s26.27-8.21,27.04-13.16S3.81,80.79,5.36,76c1.58-4.87,27.5.37,29.79-4.13s-17.12-22.45-14.14-26.54c2.99-4.11,26.02,8.87,29.61,5.29s-9.4-26.62-5.29-29.61c4.09-2.98,22,16.46,26.54,14.14s-.74-28.21,4.13-29.79c4.78-1.55,15.77,22.48,20.84,21.69S104.84,0,110,0s8.21,26.27,13.16,27.04c5.08.8,16.06-23.24,20.84-21.69,4.87,1.58-.37,27.5,4.13,29.79s22.45-17.12,26.54-14.14c4.11,2.99-8.87,26.02-5.29,29.61s26.62-9.4,29.61-5.29-16.46,22-14.14,26.54,28.21-.74,29.79,4.13c1.55,4.78-22.48,15.77-21.69,20.84s27.04,7.99,27.04,13.16Z"/>
  </g>
</svg>