<?xml version="1.0" encoding="UTF-8"?>
<svg id="_レイヤー_2" data-name="レイヤー 2" xmlns="http://www.w3.org/2000/svg" viewBox="0 0 826.79 59.51">
  <defs>
    <style>
      .cls-1 {
        fill: #231815;
        stroke-width: 0px;
      }
    </style>
  </defs>
  <g id="_レイヤー_1-2" data-name="レイヤー 1">
    <polygon class="cls-1" points="800.11 0 773.43 20.01 746.75 0 720.08 20.01 693.4 0 666.73 20.01 640.06 0 613.39 20.01 586.72 0 560.05 20.01 533.37 0 506.7 20.01 480.03 0 453.36 20.01 426.69 0 400.02 20.01 373.35 0 346.68 20.01 320.01 0 293.34 20.01 266.67 0 240 20.01 213.33 0 186.67 20.01 160 0 133.33 20.01 106.67 0 80 20.01 53.33 0 26.66 20.01 0 0 0 21.38 0 22.74 0 59.51 826.79 59.51 826.79 20.01 800.11 0"/>
  </g>
</svg>