<?xml version="1.0" encoding="UTF-8"?>
<svg id="_レイヤー_2" data-name="レイヤー 2" xmlns="http://www.w3.org/2000/svg" viewBox="0 0 237.98 226.71">
  <defs>
    <style>
      .cls-1 {
        fill: #231815;
        stroke-width: 0px;
      }
    </style>
  </defs>
  <g id="_レイヤー_1-2" data-name="レイヤー 1">
    <path class="cls-1" d="M237.98,113.35c0,10.46-44.58,13.75-47.64,23.19-3.18,9.79,30.84,38.63,24.91,46.77-5.99,8.23-43.96-15.25-52.19-9.27-8.14,5.93,2.49,49.32-7.3,52.5s-26.31-38.2-36.77-38.2-27.33,41.26-36.77,38.2.85-46.57-7.3-52.5c-8.23-5.99-46.2,17.49-52.19,9.27s28.09-36.98,24.91-46.77S0,123.82,0,113.35s44.58-13.75,47.64-23.19-30.84-38.63-24.91-46.77,43.96,15.25,52.19,9.27c8.14-5.93-2.49-49.32,7.3-52.5,9.44-3.07,26.31,38.2,36.77,38.2S146.32-2.9,155.76.16c9.79,3.18-.85,46.57,7.3,52.5,8.23,5.99,46.2-17.49,52.19-9.27,5.93,8.14-28.09,36.98-24.91,46.77s47.64,12.72,47.64,23.19Z"/>
  </g>
</svg>